<svg xmlns="http://www.w3.org/2000/svg" width="180" height="180" viewBox="0 0 180 180"><defs><clipPath id="a"><path d="M40 40h271v368H40V40z"/></clipPath></defs><path d="M180 90c0 49.706-40.294 90-90 90S0 139.706 0 90 40.294 0 90 0s90 40.294 90 90z" fill="#fff"/><g clip-path="url(#a)" transform="matrix(.31297 0 0 -.31297 35.158 160.236)"><path d="M222.023 407.898c1.16-.078 2.313-.187 3.45-.336 29.937-3.89 49.703-31.718 53.664-60.046 3.988-28.536-5.653-62.012-35.114-72.555-27.964-10.003-62.26 1.602-78.46 26.4-7.907 12.097-11.81 27.59-9.313 41.917 1.262 7.243 3.176 14.188 11.16 16.387 8.832 2.43 17.06-3.527 17.125-12.746.055-7.953-3.22-16.043-.316-23.78 2.592-6.927 8.553-12.212 14.624-16.376 10.703-7.344 28.035-10.867 39.79-3.766 12.58 7.606 15.054 25.617 13.538 38.957-1.793 15.817-11.96 32.656-27.89 37.465 0 0-7.485 1.324-9.844 2.215-5.438 2.066-8.563 10.367-8.008 16.07.79 8.117 8.445 10.89 15.593 10.195"/><path d="M248.098 191.562c2.312.188 4.558.43 6.742.72 21.328 3.386 20.996 3.304 35.004 8.73 10.01 3.88 14.148 6.922 15.515 8.61 2.527 3.128 5.11 6.276 5.11 10.452 0 7.63-6.607 13.813-14.75 13.813-4.575 0-8.017-2.676-11.368-5.008-13.438-9.35-32.555-9.286-34.89-9.235-13.57.3-27.372.367-40.462 2.496-37.074 6.024-73.578 21.114-98.63 50.005-13.21 15.242-22.515 33.128-27.78 52.574-2.28 8.417-2.817 19.694-12.59 22.81-7.305 2.33-15.44-1.233-17.68-8.757-2.246-7.546.11-16.117 2.008-23.488 2.352-9.125 5.465-17.94 9.68-26.383 8.738-17.507 21.28-32.828 35.75-45.918 29.23-26.44 66.86-43.875 106.008-49.562 16.328-2.375 30.23-2.84 42.332-1.86" fill="#ff7800"/><path d="M284.47 69.18c-13.9 28.05-80.337 98.332-147.67 100.332-67.335 2-93-84-93-84-9.417-22.625 1.634-29.55 1.634-29.55 2.45-1.747 5.527-2.786 8.867-2.786 5.762 0 10.298 3.35 13.075 7.566 3.285 4.985 3.992 13.488 4.758 18.102 3.586 21.508 28.254 76.26 86 57.668 49.004-15.778 90.855-62.992 98.668-79 5.407-11.078 8.774-13.223 8.774-13.223 2.574-2.142 5.985-3.446 9.727-3.446 8.01 0 15.016 5.988 14.5 13.336-.277 3.968-.83 5.914-5.33 15"/></g></svg>
